<svg height="496pt" viewBox="0 0 496.01423 496" width="496pt" xmlns="http://www.w3.org/2000/svg"><path d="m176 440.015625h16v16h-16zm0 0"/><path d="m479.824219 174.175781c-4.082031-3.96875-11.671875-11.359375-11.800781-14.152343.121093-2.808594 7.710937-10.191407 11.792968-14.167969 9.105469-8.855469 18.511719-18.015625 15.6875-28.566407-2.902344-10.875-15.917968-14.160156-28.503906-17.335937-5.265625-1.328125-15.0625-3.808594-16.625-5.929687-1.167969-2.488282 1.625-12.40625 3.121094-17.734376 3.488281-12.378906 7.089844-25.167968-.761719-33.007812-7.847656-7.859375-20.644531-4.242188-33.007813-.761719-5.335937 1.503907-15.222656 4.296875-17.671874 3.167969-2.175782-1.601562-4.65625-11.398438-5.984376-16.664062-3.175781-12.59375-6.460937-25.609376-17.34375-28.511719-10.566406-2.792969-19.703124 6.59375-28.566406 15.6875-3.96875 4.082031-11.359375 11.671875-14.152344 11.800781-2.808593-.121094-10.191406-7.710938-14.167968-11.792969-8.855469-9.101562-18.023438-18.519531-28.566406-15.6875-10.875 2.902344-14.160157 15.921875-17.335938 28.503907-1.328125 5.265624-3.808594 15.0625-5.929688 16.625-2.472656 1.175781-12.40625-1.625-17.734374-3.121094-12.371094-3.496094-25.167969-7.105469-33.007813.761718-7.851563 7.847657-4.242187 20.636719-.761719 33.007813 1.503906 5.335937 4.296875 15.246094 3.167969 17.671875-1.601563 2.175781-11.398437 4.65625-16.664063 5.984375-9.871093 2.496094-19.929687 5.109375-25.246093 11.34375-14.960938-9.625-32.699219-15.28125-51.761719-15.28125-52.9375 0-96 43.0625-96 96 0 8.777344 1.222656 17.367187 3.535156 25.695313-20.429687 5.511718-35.535156 24.152343-35.535156 46.304687 0 26.472656 21.527344 48 48 48h104v100.414063c-12.449219 11.160156-18.230469 27.851562-15.183594 44.507812 3.457032 18.863281 18.320313 34.148438 36.992188 38.023438 3.375.703124 6.765625 1.046874 10.128906 1.046874 11.03125 0 21.710938-3.710937 30.34375-10.734374 11.253906-9.179688 17.71875-22.753907 17.71875-37.257813 0-13.703125-5.785156-26.464844-16-35.59375v-100.40625h104c10.769531 0 20.6875-3.609375 28.710938-9.625.488281.496094.96875.945313 1.449218 1.441406 7.769532 7.984375 15.769532 16.199219 24.734375 16.199219 1.257813 0 2.539063-.167969 3.832031-.511719 10.875-2.902343 14.160157-15.921875 17.335938-28.503906 1.328125-5.265625 3.808594-15.0625 5.929688-16.625 2.457031-1.175781 12.398437 1.625 17.734374 3.121094 12.363282 3.480469 25.160157 7.085937 33.007813-.761719 7.851563-7.847656 4.242187-20.636719.761719-33.007812-1.503906-5.335938-4.296875-15.246094-3.167969-17.671876 1.601563-2.175781 11.398437-4.65625 16.664063-5.984374 12.59375-3.175782 25.609374-6.460938 28.511718-17.34375 2.824219-10.550782-6.582031-19.710938-15.679687-28.566407zm-275.648438 298.671875c-7.625 6.199219-17.246093 8.488282-27.128906 6.441406-12.359375-2.570312-22.199219-12.714843-24.496094-25.242187-2.230469-12.207031 2.351563-23.976563 12.273438-31.472656l3.175781-2.398438v-28.160156h16v-16h-16v-16h16v-16h-16v-16h16v-16h-16v-16h16v-16h-16v-16h16v-16h-16v-16c0-8.824219 7.175781-16 16-16s16 7.175781 16 16v188.160156l3.175781 2.398438c8.152344 6.160156 12.824219 15.433593 12.824219 25.441406 0 9.671875-4.3125 18.726563-11.824219 24.832031zm115.824219-176.832031h-104v-64c0-17.648437-14.351562-32-32-32s-32 14.351563-32 32v64h-104c-17.648438 0-32-14.351563-32-32s14.351562-32 32-32 32 14.351563 32 32h16c0-25.191406-19.511719-45.863281-44.214844-47.808594-2.472656-7.792969-3.785156-15.894531-3.785156-24.191406 0-44.113281 35.886719-80 80-80s80 35.886719 80 80h16c0-8.886719-1.3125-17.457031-3.574219-25.632813 8.574219-4.101562 17.957031-6.367187 27.574219-6.367187 32.847656 0 59.96875 24.886719 63.566406 56.792969-22.453125 4-39.566406 23.621094-39.566406 47.207031h16c0-17.648437 14.351562-32 32-32s32 14.351563 32 32-14.351562 32-32 32zm7.632812-79.335937c-3.671874-40.199219-37.191406-71.839844-78.160156-72.59375 7.558594-41.070313 43.925782-72.070313 86.527344-72.070313 48.519531 0 88 39.480469 88 88 0 38.480469-24.59375 71.921875-60.601562 83.640625-6.628907-14.097656-19.894532-24.425781-35.765626-26.976562zm135.445313-12.105469c-11.308594 2.855469-22 5.554687-26.566406 13.441406-4.632813 8-1.609375 18.71875 1.585937 30.0625 1.496094 5.296875 4.269532 15.152344 3.605469 17.152344-2.496094 1.121093-12.335937-1.632813-17.632813-3.117188-11.34375-3.195312-22.0625-6.21875-30.0625-1.585937-7.894531 4.566406-10.59375 15.257812-13.449218 26.578125-1.367188 5.421875-3.917969 15.519531-5.535156 16.917969-2.664063-.320313-9.648438-7.496094-13.398438-11.34375-.617188-.632813-1.226562-1.199219-1.839844-1.832032 5.183594-7.664062 8.214844-16.902344 8.214844-26.832031 0-1.679687-.089844-3.34375-.257812-4.976563 42.898437-13.664062 72.257812-53.328124 72.257812-99.023437 0-57.34375-46.65625-104-104-104-51.832031 0-95.792969 38.871094-102.886719 89.566406-6.3125 1.195313-12.457031 3.066407-18.296875 5.730469-5.417968-11.511719-13.039062-21.746094-22.335937-30.21875 2.648437-2.132812 11.472656-4.382812 16.449219-5.636719 11.308593-2.859375 22-5.554687 26.566406-13.441406 4.632812-8 1.609375-18.71875-1.585938-30.0625-1.496094-5.296875-4.269531-15.152344-3.605468-17.152344 2.488281-1.167969 12.335937 1.628907 17.632812 3.117188 11.351562 3.203125 22.0625 6.226562 30.0625 1.585937 7.894531-4.566406 10.59375-15.257812 13.449219-26.578125 1.367187-5.421875 3.917969-15.519531 5.535156-16.917969 2.664063.320313 9.648437 7.496094 13.398437 11.34375 7.960938 8.175782 16.191407 16.640626 25.625 16.640626 9.433594 0 17.664063-8.457032 25.625-16.640626 3.75-3.847656 10.734376-11.023437 12.710938-11.503906 2.304688 1.550782 4.847656 11.65625 6.222656 17.078125 2.859375 11.3125 5.554688 22 13.441406 26.570313 8.007813 4.632812 18.71875 1.609375 30.0625-1.585938 5.296876-1.496094 15.136719-4.246094 17.152344-3.605468 1.144532 2.488281-1.628906 12.335937-3.117187 17.632812-3.203125 11.34375-6.21875 22.0625-1.585938 30.0625 4.570313 7.894531 15.257813 10.589844 26.578125 13.457031 5.421875 1.367188 15.519532 3.917969 16.917969 5.527344-.320313 2.664063-7.496094 9.648437-11.34375 13.398437-8.175781 7.960938-16.632813 16.191407-16.632813 25.625 0 9.433594 8.457032 17.664063 16.640626 25.625 3.847656 3.75 11.023437 10.734376 11.503906 12.710938-1.574219 2.3125-11.679688 4.855469-17.105469 6.230469zm0 0"/></svg>