<svg xmlns="http://www.w3.org/2000/svg" width="202" height="49" viewBox="0 0 202 49"><g transform="translate(-43.247 -36.045)"><g transform="translate(113.274 39.747)"><path d="M157.107,53.079l-1.51,4.588h-1.934l4.931-14.595h2.263l4.958,14.595H163.81l-1.547-4.588Zm4.762-1.473-1.442-4.2c-.3-.958-.512-1.816-.736-2.655h-.065c-.19.839-.427,1.746-.7,2.635L157.5,51.606Z" transform="translate(-153.663 -42.297)" fill="#000f8f"/><path d="M183.619,58.343c0,2.42-.492,3.869-1.483,4.8a5.709,5.709,0,0,1-3.815,1.258,6.705,6.705,0,0,1-3.475-.866l.475-1.473a5.724,5.724,0,0,0,3.061.839c1.941,0,3.366-1.01,3.366-3.675V58.077H181.7a3.688,3.688,0,0,1-3.322,1.755c-2.586,0-4.439-2.209-4.439-5.131,0-3.549,2.308-5.543,4.717-5.543a3.467,3.467,0,0,1,3.252,1.8h.044l.068-1.555H183.7c-.058.729-.082,1.576-.082,2.857Zm-1.894-4.838a2.662,2.662,0,0,0-.108-.842,2.718,2.718,0,0,0-2.65-2.032c-1.812,0-3.105,1.541-3.105,3.986,0,2.035,1.059,3.77,3.082,3.77a2.743,2.743,0,0,0,2.633-1.981,3.165,3.165,0,0,0,.149-1.013Z" transform="translate(-161.081 -44.506)" fill="#000f8f"/><path d="M193.851,54.947a3.338,3.338,0,0,0,3.557,3.644,7.132,7.132,0,0,0,2.9-.525l.339,1.343a8.4,8.4,0,0,1-3.493.679c-3.186,0-5.131-2.155-5.131-5.294,0-3.174,1.877-5.663,4.914-5.663,3.407,0,4.293,3.007,4.293,4.936a4.8,4.8,0,0,1-.071.907Zm5.535-1.361c.02-1.193-.492-3.092-2.607-3.092-1.938,0-2.749,1.776-2.9,3.092Z" transform="translate(-167.693 -44.495)" fill="#000f8f"/><path d="M209.267,52.233c0-1.1-.02-1.974-.085-2.833h1.68l.108,1.708h.044a3.843,3.843,0,0,1,3.441-1.95c1.445,0,3.692.866,3.692,4.459v6.259h-1.9v-6.04c0-1.688-.628-3.123-2.413-3.123a2.73,2.73,0,0,0-2.539,1.95,2.644,2.644,0,0,0-.133.9v6.317h-1.9Z" transform="translate(-173.971 -44.505)" fill="#000f8f"/><path d="M234.227,59.508a7.375,7.375,0,0,1-3,.6c-3.146,0-5.189-2.141-5.189-5.373a5.328,5.328,0,0,1,5.6-5.584,5.986,5.986,0,0,1,2.633.566l-.434,1.452a4.66,4.66,0,0,0-2.2-.5c-2.393,0-3.686,1.8-3.686,3.986a3.59,3.59,0,0,0,3.625,3.924,5.377,5.377,0,0,0,2.325-.5Z" transform="translate(-180.137 -44.504)" fill="#000f8f"/><path d="M242.272,45.115a1.226,1.226,0,1,1,1.252-1.237,1.191,1.191,0,0,1-1.225,1.237Zm-.9,1.93h1.9V57.518h-1.9Z" transform="translate(-185.644 -42.149)" fill="#000f8f"/><path d="M255.4,57.363a18.631,18.631,0,0,0,.149,2.51h-1.7l-.166-1.319h-.068a3.838,3.838,0,0,1-3.19,1.558,2.978,2.978,0,0,1-3.187-3.01c0-2.536,2.237-3.917,6.272-3.893v-.218a2.156,2.156,0,0,0-2.369-2.427,5.018,5.018,0,0,0-2.739.784l-.431-1.282a6.759,6.759,0,0,1,3.451-.91c3.2,0,3.981,2.192,3.981,4.292Zm-1.853-2.829c-2.066-.051-4.415.313-4.415,2.359a1.663,1.663,0,0,0,1.771,1.81,2.62,2.62,0,0,0,2.555-1.756,1.747,1.747,0,0,0,.088-.6Z" transform="translate(-187.891 -44.504)" fill="#000f8f"/><path d="M270.01,43.208a19.038,19.038,0,0,1,3.6-.307,5.9,5.9,0,0,1,4.069,1.221,3.921,3.921,0,0,1,1.3,3.051,4.215,4.215,0,0,1-1.144,3.112,6,6,0,0,1-4.44,1.6,6.349,6.349,0,0,1-1.506-.126V57.6H270.01Zm1.873,7.016a6.466,6.466,0,0,0,1.551.154c2.284,0,3.638-1.128,3.638-3.1,0-1.943-1.354-2.877-3.421-2.877a9.91,9.91,0,0,0-1.768.143Z" transform="translate(-196.221 -42.235)" fill="#000f8f"/><path d="M295.519,54.656c0,1.091.014,2.042.082,2.864h-1.68l-.109-1.708h-.044a3.883,3.883,0,0,1-3.444,1.946c-1.639,0-3.6-.934-3.6-4.585V47.047h1.9v5.775c0,1.991.624,3.354,2.324,3.354a2.723,2.723,0,0,0,2.5-1.752,2.6,2.6,0,0,0,.173-.975v-6.4h1.9Zm-1.3-11.99-2.626,3.1h-1.338l1.9-3.1Z" transform="translate(-202.335 -42.149)" fill="#000f8f"/><path d="M304.272,41.855h1.9v6.556h.044a3.87,3.87,0,0,1,3.557-1.906c2.586,0,4.391,2.172,4.391,5.329,0,3.763-2.369,5.628-4.694,5.628a3.727,3.727,0,0,1-3.492-1.967h-.041l-.112,1.728h-1.639c.068-.713.085-1.773.085-2.7Zm1.9,11.172a3.877,3.877,0,0,0,.065.692,2.948,2.948,0,0,0,2.844,2.233c2.005,0,3.166-1.623,3.166-4.037,0-2.117-1.072-3.914-3.1-3.914a3.009,3.009,0,0,0-2.871,2.339,3.167,3.167,0,0,0-.105.8Z" transform="translate(-208.723 -41.855)" fill="#000f8f"/><rect width="1.897" height="15.372" transform="translate(107.101 0)" fill="#000f8f"/><path d="M330.037,45.115a1.226,1.226,0,0,1,.048-2.451,1.168,1.168,0,0,1,1.205,1.214,1.191,1.191,0,0,1-1.225,1.237Zm-.9,1.93h1.894V57.518h-1.894Z" transform="translate(-217.747 -42.149)" fill="#000f8f"/><path d="M343.066,59.508a7.386,7.386,0,0,1-3,.6c-3.153,0-5.192-2.141-5.192-5.373a5.328,5.328,0,0,1,5.6-5.584,6.02,6.02,0,0,1,2.63.566l-.434,1.452a4.647,4.647,0,0,0-2.2-.5c-2.393,0-3.689,1.8-3.689,3.986a3.591,3.591,0,0,0,3.625,3.924,5.381,5.381,0,0,0,2.321-.5Z" transform="translate(-219.949 -44.504)" fill="#000f8f"/><path d="M356.8,57.363a17.5,17.5,0,0,0,.153,2.51h-1.7l-.176-1.319h-.058a3.851,3.851,0,0,1-3.194,1.558,2.977,2.977,0,0,1-3.19-3.01c0-2.536,2.243-3.917,6.272-3.893v-.218a2.152,2.152,0,0,0-2.372-2.427,4.987,4.987,0,0,0-2.732.784l-.434-1.282a6.738,6.738,0,0,1,3.448-.91c3.214,0,3.987,2.192,3.987,4.292Zm-1.852-2.829c-2.071-.051-4.419.313-4.419,2.359A1.66,1.66,0,0,0,352.3,58.7a2.634,2.634,0,0,0,2.566-1.756,2.047,2.047,0,0,0,.085-.6Z" transform="translate(-224.98 -44.504)" fill="#000f8f"/><g transform="translate(0 21.601)"><path d="M153.663,76.448a33.644,33.644,0,0,1,5.662-.42c3.561,0,5.875.583,7.642,1.943,1.933,1.444,3.149,3.771,3.149,7.1a9.577,9.577,0,0,1-3.062,7.571c-1.962,1.635-4.97,2.411-8.615,2.411a36.779,36.779,0,0,1-4.777-.273Zm4.2,15.216a8.066,8.066,0,0,0,1.466.082c3.838.032,6.348-2.076,6.348-6.537,0-4.025-2.264-5.935-5.906-5.935a9.028,9.028,0,0,0-1.908.169Z" transform="translate(-153.663 -75.857)" fill="#000f8f"/><path d="M193.529,87.031h-6.847V91.47h7.645v3.464H182.488V76.25H193.94v3.461h-7.259v3.881h6.847Z" transform="translate(-164.207 -75.938)" fill="#000f8f"/><path d="M222.518,87.031h-6.847V91.47h7.642v3.464H211.477V76.25h11.446v3.461h-7.252v3.881h6.847Z" transform="translate(-174.811 -75.938)" fill="#000f8f"/><path d="M248.685,87.784c-.084-2.246-.169-4.936-.169-7.68h-.053c-.608,2.383-1.378,5.046-2.1,7.238l-2.26,7.289h-3.283l-1.993-7.208c-.608-2.221-1.209-4.852-1.681-7.32h-.056c-.084,2.524-.193,5.406-.306,7.736l-.355,7.094h-3.9l1.191-18.683h5.6l1.821,6.267c.611,2.127,1.163,4.46,1.572,6.653h.112c.5-2.165,1.132-4.605,1.765-6.713l1.964-6.208h5.516l1,18.683h-4.091Z" transform="translate(-182.512 -75.938)" fill="#000f8f"/><path d="M268.533,76.416a34.906,34.906,0,0,1,5.684-.389c2.6,0,4.478.5,5.715,1.523a5.362,5.362,0,0,1,1.958,4.3,5.9,5.9,0,0,1-1.681,4.441,8.817,8.817,0,0,1-6.074,1.967,7.365,7.365,0,0,1-1.437-.113v6.706h-4.166ZM272.7,84.9a6.07,6.07,0,0,0,1.406.116c2.242,0,3.62-1.137,3.62-3.022,0-1.72-1.157-2.75-3.283-2.75a7.658,7.658,0,0,0-1.743.141Z" transform="translate(-195.681 -75.857)" fill="#000f8f"/><path d="M292.342,76.25h4.2V91.386h7.4v3.549H292.342Z" transform="translate(-204.39 -75.938)" fill="#000f8f"/><path d="M324.189,87.031h-6.844V91.47h7.642v3.464H313.145V76.25H324.6v3.461h-7.256v3.881h6.844Z" transform="translate(-212 -75.938)" fill="#000f8f"/><path d="M342.225,95.07c-5.491,0-8.746-4.191-8.746-9.516,0-5.6,3.588-9.794,9.052-9.794,5.712,0,8.83,4.3,8.83,9.462,0,6.154-3.673,9.848-9.1,9.848Zm.193-3.364c2.843,0,4.478-2.687,4.478-6.346,0-3.354-1.578-6.242-4.478-6.242s-4.521,2.826-4.521,6.324c0,3.521,1.681,6.265,4.5,6.265Z" transform="translate(-219.438 -75.76)" fill="#000f8f"/></g></g><g transform="translate(43.247 36.045)"><path d="M43.247,69.7H64.813L52.159,92.933l-2.7-2.677,8.081-14.747.194-.408.1-.408-.055-.455-.129-.264-.185-.2-.439-.232-.559-.1H43.247Z" transform="translate(-43.247 -48.257)" fill="#ff4d0f" fill-rule="evenodd"/><path d="M77.548,36.045A5.367,5.367,0,1,1,72.491,41.4a5.223,5.223,0,0,1,5.057-5.354" transform="translate(-53.944 -36.045)" fill="#ff4d0f" fill-rule="evenodd"/><path d="M73.422,75.829l-11.9,21.312L64.694,98.8l7.772-13.871.249-.325.328-.172.443-.093.489.093.3.2.222.292L82.344,98.8l3.232-1.782Z" transform="translate(-49.933 -50.482)" fill="#ff4d0f" fill-rule="evenodd"/><path d="M83.144,69.643h21.82v3.683H91.632l-.425.149-.379.195-.323.362-.134.431v.394l.1.408,8.243,14.956L96.13,92.8Z" transform="translate(-57.841 -48.237)" fill="#ff4d0f" fill-rule="evenodd"/><path d="M49.748,60.417v.023c-.01.079-.018.154-.018.19a.653.653,0,0,0,.443.617,3.6,3.6,0,0,0,1.39.209,2.954,2.954,0,0,0,1.112-.171c.277-.1.411-.27.411-.459,0-.288-.54-.534-1.607-.71-.124-.024-.217-.042-.277-.051s-.167-.024-.3-.047a9.32,9.32,0,0,1-3.269-.961,1.723,1.723,0,0,1-.54-.589,1.633,1.633,0,0,1-.171-.77,1.73,1.73,0,0,1,1.164-1.6,8.375,8.375,0,0,1,3.431-.547,8.04,8.04,0,0,1,3.3.515,1.67,1.67,0,0,1,1.067,1.591v.07H53.078V57.7a.609.609,0,0,0-.434-.557,3.5,3.5,0,0,0-1.247-.185,2.7,2.7,0,0,0-.988.134c-.221.088-.351.218-.351.38,0,.3.623.547,1.847.756.236.041.42.069.554.1a16.854,16.854,0,0,1,1.866.39,4.466,4.466,0,0,1,.96.394,1.994,1.994,0,0,1,.693.649,1.654,1.654,0,0,1,.235.872,1.814,1.814,0,0,1-1.27,1.665,8.973,8.973,0,0,1-3.666.584,7.59,7.59,0,0,1-3.422-.566,1.868,1.868,0,0,1-1.062-1.8v-.1Zm7.712,2.338v-7.1h8.012v1.527H60.467v1.141h4.641v1.513H60.467v1.377h5.19v1.54Zm9.462,0v-7.1h3.805l4.082,4.769V55.657h2.9v7.1H73.752l-3.944-4.773v4.773ZM85.477,59.93l-1.432-2.583L82.517,59.93Zm-4.586,2.825H77.876l4.654-7.1H85.87l4.451,7.1H86.964l-.674-1.28H81.621Z" transform="translate(-44.544 -43.124)" fill="#ff4d0f" fill-rule="evenodd"/></g><g transform="translate(100.439 36.211)"><path d="M133.849,85.139a.422.422,0,0,1-.423-.42V36.725a.423.423,0,0,1,.847,0V84.72A.422.422,0,0,1,133.849,85.139Z" transform="translate(-133.426 -36.305)" fill="#ff4d0f"/></g></g></svg>